<svg width="10" height="10" viewBox="0 0 10 10" fill="none" xmlns="http://www.w3.org/2000/svg">
<path d="M2.5 3.92773H0.357741C0.161088 3.92773 0.00209205 4.08673 0 4.28548V9.64112C0 9.83987 0.161088 9.99886 0.357741 9.99886H2.5C2.69875 9.99886 2.85774 9.83778 2.85774 9.64112V4.28548C2.85774 4.08673 2.69665 3.92773 2.5 3.92773Z" fill="white"/>
<path d="M6.07153 0.000976562H3.92927C3.73262 0.000976562 3.57153 0.159972 3.57153 0.356625V9.64114C3.57153 9.83989 3.73262 9.99888 3.92927 9.99888H6.07153C6.27027 9.99888 6.42927 9.8378 6.42927 9.64114V0.358717C6.42927 0.159972 6.26818 0.000976562 6.07153 0.000976562Z" fill="white"/>
<path d="M9.64209 2.85645H7.49983C7.30109 2.85645 7.14209 3.01544 7.14209 3.21419V9.64096C7.14209 9.83971 7.30318 9.99871 7.49983 9.99871H9.64209C9.84084 9.99871 9.99983 9.83762 9.99983 9.64096V3.21419C9.99983 3.01544 9.83874 2.85645 9.64209 2.85645Z" fill="white"/>
</svg>
